<?xml version="1.0" encoding="utf-8"?>
<!-- Generator: Adobe Illustrator 28.1.0, SVG Export Plug-In . SVG Version: 6.00 Build 0)  -->
<svg version="1.1" id="Layer_1" xmlns="http://www.w3.org/2000/svg" xmlns:xlink="http://www.w3.org/1999/xlink" x="0px" y="0px"
	 viewBox="0 0 1600 1600" style="enable-background:new 0 0 1600 1600;" xml:space="preserve">
<style type="text/css">
	.st0{fill:#FF3600;}
	.st1{fill:#FFF4ED;}
</style>
<g>
	<circle class="st0" cx="800" cy="800" r="785.67"/>
	<g>
		<g>
			<g>
				<g>
					<g>
						<path class="st1" d="M1141.15,723.36c-40.93,56.62-72.31,120.75-111.88,146.33c-33.77,22.17-31.72-48.78-29.68-99.26
							c0.68-9.55-12.96-11.94-0.68-27.29c4.09-5.11,50.83-56.28,32.4-67.88c-17.39-11.26-35.47-29.67-175.66,123.82
							c-10.91-74.02-41.95-121.09-70.27-134.05c-20.13-9.55-37.18-9.55-22.51,17.4c32.41,58.33,21.83,161.68,40.93,232.97
							c20.81,61.74,133.03-111.54,147.02-128.25c-28.31,182.15,87.66,193.06,165.09,72.65c-15.69,88.69-32.06,153.84-91.42,230.25
							c-2.39,3.07-7.16,38.54,36.84,11.94c97.21-59.69,138.49-275.61,129.62-359.86C1188.22,715.51,1147.63,714.49,1141.15,723.36z
							 M771.75,928.7c42.98,90.73-140.53,26.95-105.06-305.28c11.26-105.06-120.75,126.21-166.11,373.5
							c-13.98,75.04-15.35,113.93-33.09,111.88c-10.57-1.02-30.02,5.12-52.19-59.69C373,923.92,492.72,600.22,635.31,493.46
							c20.12-15.01,64.13,4.43,83.91,28.65C758.1,569.52,697.04,771.11,771.75,928.7z"/>
					</g>
				</g>
				<g>
					<path class="st1" d="M1210.79,690.9c0-26.28,21.22-47.27,47.88-47.27c26.66,0,47.88,20.98,47.88,47.27
						c0,26.29-21.22,47.27-47.88,47.27C1232.01,738.17,1210.79,717.19,1210.79,690.9z M1296.68,690.9
						c0-21.47-16.78-38.63-38.01-38.63c-21.23,0-38.01,17.15-38.01,38.63c0,21.47,16.78,38.63,38.01,38.63
						C1279.9,729.53,1296.68,712.38,1296.68,690.9z M1240.16,665.36h21.72c9.26,0,15.42,5.68,15.42,14.07
						c0,6.17-3.82,11.48-9.62,13.33l13.95,23.57h-10.37l-13.57-22.71h-7.65v22.71h-9.87V665.36z M1261.88,684.98
						c3.45,0,5.67-2.22,5.67-5.43c0-3.33-2.22-5.55-5.67-5.55h-11.85v10.98H1261.88z"/>
				</g>
			</g>
		</g>
	</g>
</g>
</svg>
